<svg width="1200" height="800" viewBox="0 0 1200 800" fill="none" xmlns="http://www.w3.org/2000/svg">
  <defs>
    <linearGradient id="grad1" x1="0%" y1="0%" x2="100%" y2="100%">
      <stop offset="0%" style="stop-color:#6366f1;stop-opacity:0.1" />
      <stop offset="50%" style="stop-color:#8b5cf6;stop-opacity:0.1" />
      <stop offset="100%" style="stop-color:#06b6d4;stop-opacity:0.1" />
    </linearGradient>
    <linearGradient id="grad2" x1="0%" y1="0%" x2="100%" y2="100%">
      <stop offset="0%" style="stop-color:#10b981;stop-opacity:0.05" />
      <stop offset="100%" style="stop-color:#f59e0b;stop-opacity:0.05" />
    </linearGradient>
  </defs>
  
  <!-- Background -->
  <rect width="1200" height="800" fill="url(#grad1)"/>
  
  <!-- Geometric Shapes -->
  <circle cx="200" cy="150" r="80" fill="url(#grad2)" opacity="0.3">
    <animateTransform attributeName="transform" type="rotate" values="0 200 150;360 200 150" dur="20s" repeatCount="indefinite"/>
  </circle>
  
  <polygon points="800,100 900,200 800,300 700,200" fill="#6366f1" opacity="0.1">
    <animateTransform attributeName="transform" type="rotate" values="0 800 200;360 800 200" dur="25s" repeatCount="indefinite"/>
  </polygon>
  
  <rect x="100" y="500" width="120" height="120" rx="20" fill="#8b5cf6" opacity="0.1" transform="rotate(45 160 560)">
    <animateTransform attributeName="transform" type="rotate" values="45 160 560;405 160 560" dur="30s" repeatCount="indefinite"/>
  </rect>
  
  <!-- Tech Icons Pattern -->
  <g opacity="0.05">
    <!-- Brain/AI Icon -->
    <path d="M400 300 Q420 280 440 300 Q460 320 440 340 Q420 360 400 340 Q380 320 400 300 Z" fill="#06b6d4"/>
    
    <!-- Network Nodes -->
    <circle cx="600" cy="400" r="3" fill="#10b981"/>
    <circle cx="650" cy="420" r="3" fill="#10b981"/>
    <circle cx="580" cy="450" r="3" fill="#10b981"/>
    <line x1="600" y1="400" x2="650" y2="420" stroke="#10b981" stroke-width="1" opacity="0.5"/>
    <line x1="600" y1="400" x2="580" y2="450" stroke="#10b981" stroke-width="1" opacity="0.5"/>
    <line x1="650" y1="420" x2="580" y2="450" stroke="#10b981" stroke-width="1" opacity="0.5"/>
    
    <!-- Code Brackets -->
    <path d="M950 250 L930 260 L930 280 L950 290 M970 250 L990 260 L990 280 L970 290" stroke="#f59e0b" stroke-width="2" fill="none"/>
    
    <!-- Data Points -->
    <circle cx="300" cy="600" r="2" fill="#ef4444"/>
    <circle cx="320" cy="620" r="2" fill="#ef4444"/>
    <circle cx="280" cy="630" r="2" fill="#ef4444"/>
    <circle cx="340" cy="580" r="2" fill="#ef4444"/>
  </g>
  
  <!-- Animated Lines -->
  <g opacity="0.1">
    <path d="M0 200 Q300 180 600 200 Q900 220 1200 200" stroke="#6366f1" stroke-width="2" fill="none">
      <animate attributeName="d" values="M0 200 Q300 180 600 200 Q900 220 1200 200;M0 220 Q300 200 600 220 Q900 200 1200 220;M0 200 Q300 180 600 200 Q900 220 1200 200" dur="8s" repeatCount="indefinite"/>
    </path>
    
    <path d="M0 600 Q300 580 600 600 Q900 620 1200 600" stroke="#8b5cf6" stroke-width="2" fill="none">
      <animate attributeName="d" values="M0 600 Q300 580 600 600 Q900 620 1200 600;M0 580 Q300 600 600 580 Q900 600 1200 580;M0 600 Q300 580 600 600 Q900 620 1200 600" dur="10s" repeatCount="indefinite"/>
    </path>
  </g>
  
  <!-- Floating Particles -->
  <g opacity="0.3">
    <circle cx="150" cy="350" r="2" fill="#06b6d4">
      <animateTransform attributeName="transform" type="translate" values="0 0;20 -30;0 0" dur="4s" repeatCount="indefinite"/>
    </circle>
    <circle cx="1050" cy="500" r="1.5" fill="#10b981">
      <animateTransform attributeName="transform" type="translate" values="0 0;-15 -25;0 0" dur="5s" repeatCount="indefinite"/>
    </circle>
    <circle cx="750" cy="150" r="2.5" fill="#f59e0b">
      <animateTransform attributeName="transform" type="translate" values="0 0;25 -20;0 0" dur="6s" repeatCount="indefinite"/>
    </circle>
  </g>
</svg>
